{
 "asset" : {
  "generator" : "Generated by Pixyz Studio 2020.2 Update 6",
  "version" : "2.0"},
 "nodes" : [
  {
   "name" : "Mesh_Copy_1_0",
   "matrix" : [
    10,
    0,
    0,
    0,
    0,
    -0,
    -10,
    0,
    0,
    10,
    -0,
    0,
    0,
    0,
    0,
    1],
   "mesh" : 0},
  {
   "name" : "trophy_export.obj",
   "children" : [
    0]},
  {
   "name" : "Root",
   "matrix" : [
    0.001,
    0,
    0,
    0,
    0,
    0.001,
    0,
    0,
    0,
    0,
    0.001,
    0,
    0,
    0,
    0,
    1],
   "children" : [
    1]}],
 "scenes" : [
  {
   "name" : "Root",
   "nodes" : [
    2]}],
 "scene" : 0,
 "buffers" : [
  {
   "byteLength" : 881280,
   "uri" : "NFI_Trophy_V2.bin"}],
 "bufferViews" : [
  {
   "buffer" : 0,
   "byteOffset" : 0,
   "byteLength" : 440712,
   "target" : 34963},
  {
   "buffer" : 0,
   "byteOffset" : 440712,
   "byteLength" : 440568,
   "byteStride" : 12,
   "target" : 34962}],
 "accessors" : [
  {
   "bufferView" : 0,
   "count" : 220356,
   "componentType" : 5123,
   "type" : "SCALAR",
   "byteOffset" : 0,
   "min" : [
    0],
   "max" : [
    36713]},
  {
   "bufferView" : 1,
   "count" : 36714,
   "componentType" : 5126,
   "type" : "VEC3",
   "byteOffset" : 0,
   "min" : [
    -0.371671,
    -1.272368,
    0.099545],
   "max" : [
    0.53442,
    0.48787,
    1.910999]}],
 "meshes" : [
  {
   "primitives" : [
    {
     "mode" : 4,
     "material" : 0,
     "indices" : 0,
     "attributes" : {
      "POSITION" : 1}}]}],
 "materials" : [
  {
   "name" : "Mesh_Copy_1_0",
   "pbrMetallicRoughness" : {
    "baseColorFactor" : [1.000000, 0.847059, 0.447059, 1.000000],
    "metallicFactor" : 0,
    "roughnessFactor" : 0}}],
 "samplers" : [
  {
}]}